<?xml version="1.0" standalone="no"?>
<!DOCTYPE svg PUBLIC "-//W3C//DTD SVG 20010904//EN"
 "http://www.w3.org/TR/2001/REC-SVG-20010904/DTD/svg10.dtd">
<svg version="1.0" xmlns="http://www.w3.org/2000/svg"
 width="52.000000pt" height="25.000000pt" viewBox="0 0 512.000000 512.000000"
 preserveAspectRatio="xMidYMid meet">

<g transform="translate(0.000000,512.000000) scale(0.100000,-0.100000)"
fill="#000000" stroke="none">
<path d="M1046 4464 c-172 -41 -327 -184 -382 -350 -18 -57 -19 -106 -19
-1554 0 -1448 1 -1497 19 -1554 55 -168 211 -309 387 -351 95 -22 2921 -22
3017 0 190 45 352 206 397 396 12 54 15 185 15 852 0 718 -1 791 -17 817 -32
55 -112 67 -160 26 l-28 -24 -5 -809 -5 -808 -33 -67 c-37 -76 -82 -120 -162
-157 l-55 -26 -1450 0 c-1381 0 -1453 1 -1503 18 -70 25 -152 101 -183 169
l-24 53 0 1465 0 1465 24 53 c29 64 112 143 178 168 45 18 102 19 856 24 l809
5 24 28 c41 48 29 128 -26 160 -26 16 -98 17 -822 16 -648 -1 -804 -3 -852
-15z"/>
<path d="M3905 4470 c-33 -14 -1753 -1743 -1765 -1773 -6 -17 -10 -120 -10
-249 0 -329 -11 -318 318 -318 129 0 232 4 249 10 16 6 410 392 901 883 913
913 896 895 877 959 -8 26 -397 424 -459 469 -39 29 -74 35 -111 19z m-482
-1322 l-798 -798 -137 0 -138 0 0 137 0 138 797 797 798 798 137 -137 138
-138 -797 -797z"/>
</g>
</svg>
